<?xml version="1.0" encoding="UTF-8" standalone="no"?>
<!DOCTYPE svg PUBLIC "-//W3C//DTD SVG 1.1//EN" "http://www.w3.org/Graphics/SVG/1.1/DTD/svg11.dtd">
<!-- 由 Microsoft Visio, SVG Export 生成 人员绿.svg 页-1 -->
<svg xmlns="http://www.w3.org/2000/svg" xmlns:xlink="http://www.w3.org/1999/xlink" xmlns:ev="http://www.w3.org/2001/xml-events"
		xmlns:v="http://schemas.microsoft.com/visio/2003/SVGExtensions/" width="1.13361in" height="1.20563in"
		viewBox="0 0 81.6201 86.8056" xml:space="preserve" color-interpolation-filters="sRGB" class="st3">
	<v:documentProperties v:langID="2052" v:metric="true" v:viewMarkup="false"/>

	<style type="text/css">
	<![CDATA[
		.st1 {fill:#92d050;stroke:#ffffff;stroke-linecap:round;stroke-linejoin:round;stroke-width:2.25}
		.st2 {fill:#ffffff;stroke:#ffffff;stroke-linecap:round;stroke-linejoin:round;stroke-width:0.75}
		.st3 {fill:none;fill-rule:evenodd;font-size:12px;overflow:visible;stroke-linecap:square;stroke-miterlimit:3}
	]]>
	</style>

	<g v:mID="0" v:index="1" v:groupContext="foregroundPage">
		<title>页-1</title>
		<v:pageProperties v:drawingScale="0.0393701" v:pageScale="0.0393701" v:drawingUnits="24" v:shadowOffsetX="8.50394"
				v:shadowOffsetY="-8.50394"/>
		<g id="shape146-1" v:mID="146" v:groupContext="shape" transform="translate(1.125,-1.125)">
			<title>工作表.146</title>
			<path d="M0.05 45.85 A41.5373 41.5373 0 0 1 39.67 2.25 A41.4759 41.4759 0 0 1 79.28 46.39 A60.9517 60.9517 0 0 1 39.67
						 86.81 A59.3604 59.3604 0 0 1 0.05 45.85 Z" class="st1"/>
		</g>
		<g id="group185-3" transform="translate(18.6519,-28.0607)" v:mID="185" v:groupContext="group">
			<title>工作表.185</title>
			<g id="shape177-4" v:mID="177" v:groupContext="shape">
				<title>工作表.177</title>
				<path d="M-0 86.81 A23.1704 23.1704 0 0 1 14.52 65.97 L29.73 65.97 A21.2396 21.2396 0 0 1 44.31 86.81 L0 86.81 Z"
						class="st2"/>
			</g>
			<g id="shape176-6" v:mID="176" v:groupContext="shape" transform="translate(8.66218,-18.6998)">
				<title>工作表.176</title>
				<ellipse cx="13.5493" cy="73.388" rx="13.5493" ry="13.4176" class="st2"/>
			</g>
		</g>
	</g>
</svg>
