<?xml version="1.0" encoding="UTF-8" standalone="no"?>
<!DOCTYPE svg PUBLIC "-//W3C//DTD SVG 1.1//EN" "http://www.w3.org/Graphics/SVG/1.1/DTD/svg11.dtd">
<!-- 由 Microsoft Visio, SVG Export 生成 风橙.svg 页-1 -->
<svg xmlns="http://www.w3.org/2000/svg" xmlns:xlink="http://www.w3.org/1999/xlink" xmlns:ev="http://www.w3.org/2001/xml-events"
		xmlns:v="http://schemas.microsoft.com/visio/2003/SVGExtensions/" width="1.13361in" height="1.20563in"
		viewBox="0 0 81.6201 86.8056" xml:space="preserve" color-interpolation-filters="sRGB" class="st2">
	<v:documentProperties v:langID="2052" v:metric="true" v:viewMarkup="false"/>

	<style type="text/css">
	<![CDATA[
		.st1 {fill:#fb9e04;stroke:#ffffff;stroke-linecap:round;stroke-linejoin:round;stroke-width:2.25}
		.st2 {fill:none;fill-rule:evenodd;font-size:12px;overflow:visible;stroke-linecap:square;stroke-miterlimit:3}
	]]>
	</style>

	<g v:mID="0" v:index="1" v:groupContext="foregroundPage">
		<title>页-1</title>
		<v:pageProperties v:drawingScale="0.0393701" v:pageScale="0.0393701" v:drawingUnits="24" v:shadowOffsetX="8.50394"
				v:shadowOffsetY="-8.50394"/>
		<g id="group49-1" transform="translate(1.125,-1.125)" v:mID="49" v:groupContext="group">
			<title>工作表.49</title>
			<g id="shape50-2" v:mID="50" v:groupContext="shape">
				<title>工作表.50</title>
				<path d="M0.05 45.85 A41.5373 41.5373 0 0 1 39.67 2.25 A41.4759 41.4759 0 0 1 79.28 46.39 A60.9517 60.9517 0 0 1
							 39.67 86.81 A59.3604 59.3604 0 0 1 0.05 45.85 Z" class="st1"/>
			</g>
			<g id="group51-4" transform="translate(10.8699,-17.0646)" v:mID="51" v:groupContext="group">
				<title>工作表.51</title>
				<g id="shape52-5" v:mID="52" v:groupContext="shape" transform="translate(0,-28.8151)">
					<title>工作表.52</title>
					<path d="M28.82 86.81 L0 86.81 A21.6113 14.4076 0 0 1 21.61 72.4 L28.82 72.4 L28.82 86.81 Z" class="st1"/>
				</g>
				<g id="shape53-7" v:mID="53" v:groupContext="shape" transform="translate(115.621,29.1754) rotate(90)">
					<title>工作表.53</title>
					<path d="M28.82 86.81 L0 86.81 A21.6113 14.4076 0 0 1 21.61 72.4 L28.82 72.4 L28.82 86.81 Z" class="st1"/>
				</g>
				<g id="shape54-9" v:mID="54" v:groupContext="shape" transform="translate(57.6302,144.796) rotate(180)">
					<title>工作表.54</title>
					<path d="M28.82 86.81 L0 86.81 A21.6113 14.4076 0 0 1 21.61 72.4 L28.82 72.4 L28.82 86.81 Z" class="st1"/>
				</g>
				<g id="shape55-11" v:mID="55" v:groupContext="shape" transform="translate(-57.9905,86.8056) rotate(-90)">
					<title>工作表.55</title>
					<path d="M28.82 86.81 L0 86.81 A21.6113 14.4076 0 0 1 21.61 72.4 L28.82 72.4 L28.82 86.81 Z" class="st1"/>
				</g>
			</g>
		</g>
	</g>
</svg>
