<?xml version="1.0" encoding="UTF-8" standalone="no"?>
<!DOCTYPE svg PUBLIC "-//W3C//DTD SVG 1.1//EN" "http://www.w3.org/Graphics/SVG/1.1/DTD/svg11.dtd">
<!-- 由 Microsoft Visio, SVG Export 生成 汽车修理场.svg 页-1 -->
<svg xmlns="http://www.w3.org/2000/svg" xmlns:xlink="http://www.w3.org/1999/xlink" xmlns:ev="http://www.w3.org/2001/xml-events"
		xmlns:v="http://schemas.microsoft.com/visio/2003/SVGExtensions/" width="4.41401in" height="4.4157in"
		viewBox="0 0 317.809 317.93" xml:space="preserve" color-interpolation-filters="sRGB" class="st5">
	<v:documentProperties v:langID="2052" v:metric="true" v:viewMarkup="false"/>

	<style type="text/css">
	<![CDATA[
		.st1 {fill:none;stroke:#d8d8d8;stroke-linecap:round;stroke-linejoin:round;stroke-width:26}
		.st2 {fill:#d8d8d8;stroke:none;stroke-linecap:round;stroke-linejoin:round;stroke-width:0.75}
		.st3 {fill:#ffffff;stroke:none;stroke-linecap:round;stroke-linejoin:round;stroke-width:0.75}
		.st4 {stroke:none;stroke-linecap:round;stroke-linejoin:round;stroke-width:0.75}
		.st5 {fill:none;fill-rule:evenodd;font-size:12px;overflow:visible;stroke-linecap:square;stroke-miterlimit:3}
	]]>
	</style>

	<g v:mID="0" v:index="1" v:groupContext="foregroundPage">
		<title>页-1</title>
		<v:pageProperties v:drawingScale="0.0393701" v:pageScale="0.0393701" v:drawingUnits="24" v:shadowOffsetX="8.50394"
				v:shadowOffsetY="-8.50394"/>
		<g id="group156-1" transform="translate(45.7191,-45.6945)" v:mID="156" v:groupContext="group">
			<title>工作表.156</title>
			<g id="shape89-2" v:mID="89" v:groupContext="shape" transform="translate(-101.819,113.092) rotate(-38)">
				<title>工作表.89</title>
				<ellipse cx="113.052" cy="204.526" rx="113.052" ry="113.404" class="st1"/>
			</g>
			<g id="group125-4" transform="translate(-72.7144,8.33068) rotate(-38)" v:mID="125" v:groupContext="group">
				<title>工作表.125</title>
				<g id="shape100-5" v:mID="100" v:groupContext="shape" transform="translate(6.79456E-014,-78.7365)">
					<title>工作表.100</title>
					<ellipse cx="24.7374" cy="295.015" rx="24.7374" ry="22.9159" class="st2"/>
				</g>
				<g id="shape101-7" v:mID="101" v:groupContext="shape" transform="translate(5.19584E-014,-115.167)">
					<title>工作表.101</title>
					<ellipse cx="7.05103" cy="312.055" rx="7.05103" ry="5.87586" class="st2"/>
				</g>
				<g id="shape102-9" v:mID="102" v:groupContext="shape" transform="translate(35.2552,-115.167)">
					<title>工作表.102</title>
					<ellipse cx="7.05103" cy="312.055" rx="7.05103" ry="5.87586" class="st2"/>
				</g>
				<g id="shape103-11" v:mID="103" v:groupContext="shape" transform="translate(9.40138,-110.286)">
					<title>工作表.103</title>
					<rect x="0" y="297.772" width="30.5545" height="20.1585" class="st3"/>
				</g>
				<g id="shape106-13" v:mID="106" v:groupContext="shape" transform="translate(-294.427,222.741) rotate(-90)">
					<title>工作表.106</title>
					<path d="M0 317.93 L17.63 317.93" class="st4"/>
				</g>
				<g id="shape108-16" v:mID="108" v:groupContext="shape" transform="translate(9.40138,-101.065)">
					<title>工作表.108</title>
					<path d="M0 308.53 L15.28 317.93 L30.55 308.53 L0 308.53 Z" class="st3"/>
				</g>
				<g id="shape109-18" v:mID="109" v:groupContext="shape" transform="translate(14.1021,0)">
					<title>工作表.109</title>
					<rect x="0" y="238.019" width="21.1531" height="79.9117" class="st2"/>
				</g>
				<g id="shape110-20" v:mID="110" v:groupContext="shape" transform="translate(19.9779,-81.0869)">
					<title>工作表.110</title>
					<path d="M4.7 306.18 L0 309.7 L0 314.78 L4.7 317.93" class="st4"/>
				</g>
				<g id="shape111-23" v:mID="111" v:groupContext="shape" transform="translate(-198.957,12.0328) rotate(-45)">
					<title>工作表.111</title>
					<path d="M0 317.93 L4.99 317.93" class="st4"/>
				</g>
				<g id="shape119-26" v:mID="119" v:groupContext="shape" transform="translate(19.9779,-81.0869)">
					<title>工作表.119</title>
					<path d="M4.7 306.18 L0 309.7 L0 314.4 L4.7 317.93 L9.4 314.4 L9.4 309.7 L4.7 306.18 Z" class="st3"/>
				</g>
				<g id="shape121-28" v:mID="121" v:groupContext="shape" transform="translate(0,-102.005)">
					<title>工作表.121</title>
					<rect x="0" y="297.717" width="9.40138" height="20.213" class="st2"/>
				</g>
				<g id="shape122-30" v:mID="122" v:groupContext="shape" transform="translate(39.9559,-102.005)">
					<title>工作表.122</title>
					<rect x="0" y="297.717" width="9.40138" height="20.213" class="st2"/>
				</g>
				<g id="shape123-32" v:mID="123" v:groupContext="shape" transform="translate(14.1021,-69.3352)">
					<title>工作表.123</title>
					<rect x="0" y="306.179" width="7.19948" height="11.7517" class="st2"/>
				</g>
				<g id="shape124-34" v:mID="124" v:groupContext="shape" transform="translate(28.0557,-70.5103)">
					<title>工作表.124</title>
					<rect x="0" y="306.179" width="7.19948" height="11.7517" class="st2"/>
				</g>
			</g>
			<g id="group141-36" transform="translate(308.101,413.96) rotate(142)" v:mID="141" v:groupContext="group">
				<title>工作表.141</title>
				<g id="shape142-37" v:mID="142" v:groupContext="shape" transform="translate(6.79456E-014,-78.7365)">
					<title>工作表.142</title>
					<ellipse cx="24.7374" cy="295.015" rx="24.7374" ry="22.9159" class="st2"/>
				</g>
				<g id="shape143-39" v:mID="143" v:groupContext="shape" transform="translate(5.19584E-014,-115.167)">
					<title>工作表.143</title>
					<ellipse cx="7.05103" cy="312.055" rx="7.05103" ry="5.87586" class="st2"/>
				</g>
				<g id="shape144-41" v:mID="144" v:groupContext="shape" transform="translate(35.2552,-115.167)">
					<title>工作表.144</title>
					<ellipse cx="7.05103" cy="312.055" rx="7.05103" ry="5.87586" class="st2"/>
				</g>
				<g id="shape145-43" v:mID="145" v:groupContext="shape" transform="translate(9.40138,-110.31)">
					<title>工作表.145</title>
					<rect x="0" y="297.797" width="30.5545" height="20.1337" class="st3"/>
				</g>
				<g id="shape146-45" v:mID="146" v:groupContext="shape" transform="translate(-294.427,222.741) rotate(-90)">
					<title>工作表.146</title>
					<path d="M0 317.93 L17.63 317.93" class="st4"/>
				</g>
				<g id="shape147-48" v:mID="147" v:groupContext="shape" transform="translate(9.40138,-101.065)">
					<title>工作表.147</title>
					<path d="M0 308.53 L15.28 317.93 L30.55 308.53 L0 308.53 Z" class="st3"/>
				</g>
				<g id="shape148-50" v:mID="148" v:groupContext="shape" transform="translate(14.1021,0)">
					<title>工作表.148</title>
					<rect x="0" y="238.019" width="21.1531" height="79.9117" class="st2"/>
				</g>
				<g id="shape149-52" v:mID="149" v:groupContext="shape" transform="translate(19.9779,-81.0869)">
					<title>工作表.149</title>
					<path d="M4.7 306.18 L0 309.7 L0 314.78 L4.7 317.93" class="st4"/>
				</g>
				<g id="shape150-55" v:mID="150" v:groupContext="shape" transform="translate(-198.957,12.0328) rotate(-45)">
					<title>工作表.150</title>
					<path d="M0 317.93 L4.99 317.93" class="st4"/>
				</g>
				<g id="shape151-58" v:mID="151" v:groupContext="shape" transform="translate(19.9779,-81.0869)">
					<title>工作表.151</title>
					<path d="M4.7 306.18 L0 309.7 L0 314.4 L4.7 317.93 L9.4 314.4 L9.4 309.7 L4.7 306.18 Z" class="st3"/>
				</g>
				<g id="shape152-60" v:mID="152" v:groupContext="shape" transform="translate(0,-102.005)">
					<title>工作表.152</title>
					<rect x="0" y="297.717" width="9.40138" height="20.213" class="st2"/>
				</g>
				<g id="shape153-62" v:mID="153" v:groupContext="shape" transform="translate(39.9559,-102.005)">
					<title>工作表.153</title>
					<rect x="0" y="297.717" width="9.40138" height="20.213" class="st2"/>
				</g>
				<g id="shape154-64" v:mID="154" v:groupContext="shape" transform="translate(14.1021,-69.3352)">
					<title>工作表.154</title>
					<rect x="0" y="306.179" width="7.19948" height="11.7517" class="st2"/>
				</g>
				<g id="shape155-66" v:mID="155" v:groupContext="shape" transform="translate(28.0557,-70.5103)">
					<title>工作表.155</title>
					<rect x="0" y="306.179" width="7.19948" height="11.7517" class="st2"/>
				</g>
			</g>
		</g>
	</g>
</svg>
