<?xml version="1.0" encoding="UTF-8" standalone="no"?>
<!DOCTYPE svg PUBLIC "-//W3C//DTD SVG 1.1//EN" "http://www.w3.org/Graphics/SVG/1.1/DTD/svg11.dtd">
<!-- 由 Microsoft Visio, SVG Export 生成 油罐.svg 页-1 -->
<svg xmlns="http://www.w3.org/2000/svg" xmlns:xlink="http://www.w3.org/1999/xlink" xmlns:ev="http://www.w3.org/2001/xml-events"
		xmlns:v="http://schemas.microsoft.com/visio/2003/SVGExtensions/" width="2.93168in" height="3.19939in"
		viewBox="0 0 211.081 230.356" xml:space="preserve" color-interpolation-filters="sRGB" class="st3">
	<v:documentProperties v:langID="2052" v:metric="true" v:viewMarkup="false"/>

	<style type="text/css">
	<![CDATA[
		.st1 {fill:#d8d8d8;stroke:none;stroke-linecap:round;stroke-linejoin:round;stroke-width:0.75}
		.st2 {fill:#ffffff;stroke:none;stroke-linecap:round;stroke-linejoin:round;stroke-width:0.75}
		.st3 {fill:none;fill-rule:evenodd;font-size:12px;overflow:visible;stroke-linecap:square;stroke-miterlimit:3}
	]]>
	</style>

	<g v:mID="0" v:index="1" v:groupContext="foregroundPage">
		<title>页-1</title>
		<v:pageProperties v:drawingScale="0.0393701" v:pageScale="0.0393701" v:drawingUnits="24" v:shadowOffsetX="8.50394"
				v:shadowOffsetY="-8.50394"/>
		<g id="shape30-1" v:mID="30" v:groupContext="shape" transform="translate(28.7215,-3.20965)">
			<title>工作表.30</title>
			<rect x="0" y="3.58465" width="127.559" height="226.772" rx="14.1732" ry="14.1732" class="st1"/>
		</g>
		<g id="shape34-3" v:mID="34" v:groupContext="shape" transform="translate(166.202,-74.0758)">
			<title>工作表.34</title>
			<rect x="0" y="162.325" width="8.50394" height="68.0315" class="st1"/>
		</g>
		<g id="shape35-5" v:mID="35" v:groupContext="shape" transform="translate(200.218,-74.0758)">
			<title>工作表.35</title>
			<rect x="0" y="162.325" width="8.50394" height="68.0315" class="st1"/>
		</g>
		<g id="shape36-7" v:mID="36" v:groupContext="shape" transform="translate(197.95,-140.69)">
			<title>工作表.36</title>
			<rect x="0" y="199.175" width="12.7559" height="31.1811" class="st1"/>
		</g>
		<g id="shape37-9" v:mID="37" v:groupContext="shape" transform="translate(38.7429,-95.3869) rotate(-45)">
			<title>工作表.37</title>
			<rect x="0" y="199.175" width="12.7559" height="31.1811" class="st1"/>
		</g>
		<g id="shape38-11" v:mID="38" v:groupContext="shape" transform="translate(0.375,-0.375)">
			<title>工作表.38</title>
			<rect x="0" y="216.183" width="184.252" height="14.1732" class="st1"/>
		</g>
		<g id="shape40-13" v:mID="40" v:groupContext="shape" transform="translate(44.312,-150.611)">
			<title>工作表.40</title>
			<rect x="0" y="179.333" width="96.378" height="51.0236" rx="14.1732" ry="14.1732" class="st2"/>
		</g>
		<g id="shape42-15" v:mID="42" v:groupContext="shape" transform="translate(156.281,-142.107)">
			<title>工作表.42</title>
			<path d="M-0 223.27 A9.92126 7.08661 0 0 1 9.92 230.36 L18.43 230.36 A18.4252 18.4252 -180 0 0 -0 211.93 L0 223.27 Z"
					class="st1"/>
		</g>
		<g id="shape49-17" v:mID="49" v:groupContext="shape" transform="translate(166.202,-57.0679)">
			<title>工作表.49</title>
			<path d="M8.5 213.35 A12.7559 8.50394 -180 0 0 21.26 221.85 L21.26 230.36 A21.2598 17.0079 0 0 1 0 213.35 L8.5 213.35
						 Z" class="st1"/>
		</g>
		<g id="shape51-19" v:mID="51" v:groupContext="shape" transform="translate(187.462,-57.0679)">
			<title>工作表.51</title>
			<path d="M-0 230.36 A21.2598 17.0079 -180 0 0 21.26 213.35 L12.76 213.35 A12.7559 8.50394 0 0 1 -0 221.85 L0 230.36 Z"
					class="st1"/>
		</g>
	</g>
</svg>
